<svg width="96" height="96" viewBox="0 0 96 96" fill="none" xmlns="http://www.w3.org/2000/svg">
  <defs>
    <filter id="plate-shadow" x="0" y="2" width="96" height="96" filterUnits="userSpaceOnUse" color-interpolation-filters="sRGB">
      <feOffset dy="6"/>
      <feGaussianBlur stdDeviation="4"/>
      <feColorMatrix type="matrix" values="0 0 0 0 0.0588 0 0 0 0 0.102 0 0 0 0 0.149 0 0 0 0.18 0"/>
    </filter>
    <linearGradient id="plate-fill" x1="16" y1="14" x2="80" y2="82" gradientUnits="userSpaceOnUse">
      <stop offset="0" stop-color="#FFF9EE"/>
      <stop offset="1" stop-color="#EEF7FA"/>
    </linearGradient>
  </defs>

  <g filter="url(#plate-shadow)">
    <rect x="8" y="6" width="80" height="80" rx="22" fill="url(#plate-fill)"/>
    <rect x="8.75" y="6.75" width="78.5" height="78.5" rx="21.25" stroke="#D7E3EA" stroke-width="1.5"/>
  </g>

  <rect x="20" y="21" width="40" height="22" rx="8" fill="#DFF5EA"/>
  <rect x="20.5" y="21.5" width="39" height="21" rx="7.5" stroke="#C6E7DB"/>
  <rect x="27" y="28" width="7" height="8" rx="3.5" fill="#1F9D76"/>
  <rect x="38" y="29" width="14" height="3.5" rx="1.75" fill="#173042" fill-opacity="0.22"/>
  <rect x="38" y="34.5" width="10" height="3.5" rx="1.75" fill="#173042" fill-opacity="0.14"/>

  <rect x="28" y="37" width="44" height="22" rx="8" fill="#DDEBFF"/>
  <rect x="28.5" y="37.5" width="43" height="21" rx="7.5" stroke="#C7D9F5"/>
  <rect x="35" y="44" width="7" height="8" rx="3.5" fill="#3B82F6"/>
  <rect x="46" y="45" width="16" height="3.5" rx="1.75" fill="#173042" fill-opacity="0.22"/>
  <rect x="46" y="50.5" width="11" height="3.5" rx="1.75" fill="#173042" fill-opacity="0.14"/>

  <rect x="36" y="53" width="40" height="22" rx="8" fill="#FFF7E8"/>
  <rect x="36.5" y="53.5" width="39" height="21" rx="7.5" stroke="#F0DEC1"/>
  <rect x="43" y="60" width="7" height="8" rx="3.5" fill="#F59E0B"/>
  <rect x="54" y="61" width="14" height="3.5" rx="1.75" fill="#173042" fill-opacity="0.22"/>
  <rect x="54" y="66.5" width="10" height="3.5" rx="1.75" fill="#173042" fill-opacity="0.14"/>

  <circle cx="73" cy="25" r="9" fill="#0F766E"/>
  <path d="M73 17.8L75.5 22.5L80.2 25L75.5 27.5L73 32.2L70.5 27.5L65.8 25L70.5 22.5L73 17.8Z" fill="#FFF7D6"/>
</svg>
